<svg width="15" height="15" viewBox="0 0 15 15" fill="none" xmlns="http://www.w3.org/2000/svg">
<path fill-rule="evenodd" clip-rule="evenodd" d="M7.39879 0C3.31096 0 0 3.31096 0 7.39879C0 10.6728 2.1179 13.4381 5.05892 14.4184C5.42886 14.4831 5.56759 14.2612 5.56759 14.0669C5.56759 13.8912 5.55834 13.3086 5.55834 12.6889C3.69939 13.0311 3.21847 12.2357 3.0705 11.8196C2.98726 11.6069 2.62657 10.9502 2.31212 10.7745C2.05316 10.6358 1.68322 10.2936 2.30287 10.2843C2.88553 10.2751 3.30171 10.8207 3.44044 11.0427C4.10633 12.1618 5.1699 11.8473 5.59533 11.6531C5.66007 11.1722 5.85429 10.8485 6.06701 10.6635C4.42078 10.4785 2.70056 9.84039 2.70056 7.01035C2.70056 6.20573 2.98726 5.53984 3.45893 5.02193C3.38495 4.83696 3.12599 4.07858 3.53292 3.06125C3.53292 3.06125 4.15257 2.86703 5.56759 3.81962C6.15949 3.65315 6.78839 3.56992 7.41729 3.56992C8.04618 3.56992 8.67508 3.65315 9.26698 3.81962C10.682 2.85778 11.3017 3.06125 11.3017 3.06125C11.7086 4.07858 11.4496 4.83696 11.3756 5.02193C11.8473 5.53984 12.134 6.19649 12.134 7.01035C12.134 9.84964 10.4045 10.4785 8.75832 10.6635C9.02652 10.8947 9.25774 11.3386 9.25774 12.0323C9.25774 13.0219 9.24849 13.8172 9.24849 14.0669C9.24849 14.2612 9.38721 14.4924 9.75715 14.4184C12.7689 13.4017 14.7968 10.5775 14.7976 7.39879C14.7976 3.31096 11.4866 0 7.39879 0Z" fill="white"/>
</svg>
