<svg xmlns="http://www.w3.org/2000/svg" xmlns:xlink="http://www.w3.org/1999/xlink" width="141" height="97" viewBox="0 0 141 97">
  <defs>
    <path id="simpler-a" d="M3.73005707,39.1109148 L68.2103499,0.569495193 C69.5239366,-0.189831731 71.142841,-0.189831731 72.4564276,0.569495193 L136.369686,37.4942548 L137.552112,36.7343165 L140.759579,35.7997152 L140.759579,42.4823712 C140.759579,43.9996921 139.950472,45.401783 138.636978,46.1606 L71.5636143,85.1201483 C70.2500277,85.8794752 68.6311232,85.8794752 67.3175366,85.1201483 L2.12611606,47.4260863 C0.812621892,46.6672693 0.00351523094,45.2651784 0.00351523094,43.7478575 C0.00351523094,43.6158992 0.00963485096,43.4848124 0.0216736541,43.3549445 L0.0216736541,37.0932347 L3.73005707,39.1109148 Z"/>
  </defs>
  <g fill="none" fill-rule="evenodd" transform="translate(0 .055)">
    <g transform="translate(.07 .022)">
      <use fill="#FFAE47" fill-rule="nonzero" transform="translate(0 6.62)" xlink:href="#simpler-a"/>
      <path fill="#FCC062" fill-rule="nonzero" d="M72.4564276,0.569495193 L138.636978,38.8041425 C139.950472,39.5629595 140.759579,40.9650504 140.759579,42.4823712 C140.759579,43.9996921 139.950472,45.401783 138.636978,46.1606 L71.5636143,85.1201483 C70.2500277,85.8794752 68.6311232,85.8794752 67.3175366,85.1201483 L2.12611606,47.4260863 C0.812621892,46.6672693 0.00351523094,45.2651784 0.00351523094,43.7478575 C0.00351523094,42.2305367 0.812621892,40.8284458 2.12611606,40.0696288 L68.2103499,0.569495193 C69.5239366,-0.189831731 71.142841,-0.189831731 72.4564276,0.569495193 Z"/>
      <g transform="translate(76.824 45.715)">
        <path fill="#DA7D17" fill-rule="nonzero" d="M32.7557132,10.6394752 C32.7558333,10.6487068 32.7558935,10.6579476 32.7558935,10.6671973 C32.7558935,11.4079747 32.3698453,12.0924192 31.7433041,12.4624682 L19.4433301,19.7333153 C19.3050433,19.8165393 19.1594848,19.881587 19.0098257,19.9284431 L17.3888413,20.8877812 C16.7719129,21.2548469 16.0104559,21.2548469 15.3935276,20.8877812 L1.0265077,12.380522 C0.412110293,12.0142698 0.0340910684,11.3405947 0.0340910684,10.6119178 C0.0340910684,9.88324091 0.412110293,9.20956582 1.0265077,8.84331368 L15.4011433,0.332150271 C16.0177353,-0.0309967466 16.7760571,-0.0309967466 17.3926491,0.332150271 L31.7634769,8.84331368 C32.3778743,9.20956582 32.7558935,9.88324091 32.7558935,10.6119178 C32.7558935,10.6211125 32.7558333,10.6302985 32.7557132,10.6394752 Z"/>
        <path fill="#F7931E" fill-rule="nonzero" d="M15.9072791,21.3154495 C16.1952193,21.4866673 16.5499762,21.4866673 16.8379163,21.3154495 L29.7445639,13.6510277 L31.1088546,12.8237179 L16.8413128,4.32848804 C16.5546125,4.15717032 16.2007724,4.15717032 15.9140721,4.32848804 L1.63563686,12.7328728 L3.02440692,13.6510277 L15.9072791,21.3154495 Z"/>
      </g>
      <g transform="translate(29.485 45.965)">
        <path fill="#DA7D17" fill-rule="nonzero" d="M32.7557132,10.6394752 C32.7558333,10.6487068 32.7558935,10.6579476 32.7558935,10.6671973 C32.7558935,11.4079747 32.3698453,12.0924192 31.7433041,12.4624682 L19.4433301,19.7333153 C19.3050433,19.8165393 19.1594848,19.881587 19.0098257,19.9284431 L17.3888413,20.8877812 C16.7719129,21.2548469 16.0104559,21.2548469 15.3935276,20.8877812 L1.0265077,12.380522 C0.412110293,12.0142698 0.0340910684,11.3405947 0.0340910684,10.6119178 C0.0340910684,9.88324091 0.412110293,9.20956582 1.0265077,8.84331368 L15.4011433,0.332150271 C16.0177353,-0.0309967466 16.7760571,-0.0309967466 17.3926491,0.332150271 L31.7634769,8.84331368 C32.3778743,9.20956582 32.7558935,9.88324091 32.7558935,10.6119178 C32.7558935,10.6211125 32.7558333,10.6302985 32.7557132,10.6394752 Z"/>
        <path fill="#F7931E" fill-rule="nonzero" d="M15.9072791,21.3154495 C16.1952193,21.4866673 16.5499762,21.4866673 16.8379163,21.3154495 L29.7445639,13.6510277 L31.1088546,12.8237179 L16.8413128,4.32848804 C16.5546125,4.15717032 16.2007724,4.15717032 15.9140721,4.32848804 L1.63563686,12.7328728 L3.02440692,13.6510277 L15.9072791,21.3154495 Z"/>
      </g>
      <g transform="translate(52.967 59.455)">
        <path fill="#DA7D17" fill-rule="nonzero" d="M32.7557132,10.6394752 C32.7558333,10.6487068 32.7558935,10.6579476 32.7558935,10.6671973 C32.7558935,11.4079747 32.3698453,12.0924192 31.7433041,12.4624682 L19.4433301,19.7333153 C19.3050433,19.8165393 19.1594848,19.881587 19.0098257,19.9284431 L17.3888413,20.8877812 C16.7719129,21.2548469 16.0104559,21.2548469 15.3935276,20.8877812 L1.0265077,12.380522 C0.412110293,12.0142698 0.0340910684,11.3405947 0.0340910684,10.6119178 C0.0340910684,9.88324091 0.412110293,9.20956582 1.0265077,8.84331368 L15.4011433,0.332150271 C16.0177353,-0.0309967466 16.7760571,-0.0309967466 17.3926491,0.332150271 L31.7634769,8.84331368 C32.3778743,9.20956582 32.7558935,9.88324091 32.7558935,10.6119178 C32.7558935,10.6211125 32.7558333,10.6302985 32.7557132,10.6394752 Z"/>
        <path fill="#F7931E" fill-rule="nonzero" d="M15.9072791,21.3154495 C16.1952193,21.4866673 16.5499762,21.4866673 16.8379163,21.3154495 L29.7445639,13.6510277 L31.1088546,12.8237179 L16.8413128,4.32848804 C16.5546125,4.15717032 16.2007724,4.15717032 15.9140721,4.32848804 L1.63563686,12.7328728 L3.02440692,13.6510277 L15.9072791,21.3154495 Z"/>
      </g>
      <g transform="translate(6 5)">
        <g transform="translate(47.592 .121)">
          <path fill="#DA7D17" fill-rule="nonzero" d="M32.7557132,10.6394752 C32.7558333,10.6487068 32.7558935,10.6579476 32.7558935,10.6671973 C32.7558935,11.4079747 32.3698453,12.0924192 31.7433041,12.4624682 L19.4433301,19.7333153 C19.3050433,19.8165393 19.1594848,19.881587 19.0098257,19.9284431 L17.3888413,20.8877812 C16.7719129,21.2548469 16.0104559,21.2548469 15.3935276,20.8877812 L1.0265077,12.380522 C0.412110293,12.0142698 0.0340910684,11.3405947 0.0340910684,10.6119178 C0.0340910684,9.88324091 0.412110293,9.20956582 1.0265077,8.84331368 L15.4011433,0.332150271 C16.0177353,-0.0309967466 16.7760571,-0.0309967466 17.3926491,0.332150271 L31.7634769,8.84331368 C32.3778743,9.20956582 32.7558935,9.88324091 32.7558935,10.6119178 C32.7558935,10.6211125 32.7558333,10.6302985 32.7557132,10.6394752 Z"/>
          <path fill="#F7931E" fill-rule="nonzero" d="M15.9072791,21.3154495 C16.1952193,21.4866673 16.5499762,21.4866673 16.8379163,21.3154495 L29.7445639,13.6510277 L31.1088546,12.8237179 L16.8413128,4.32848804 C16.5546125,4.15717032 16.2007724,4.15717032 15.9140721,4.32848804 L1.63563686,12.7328728 L3.02440692,13.6510277 L15.9072791,21.3154495 Z"/>
        </g>
        <g transform="translate(71.074 13.736)">
          <path fill="#DA7D17" fill-rule="nonzero" d="M32.7557132,10.6394752 C32.7558333,10.6487068 32.7558935,10.6579476 32.7558935,10.6671973 C32.7558935,11.4079747 32.3698453,12.0924192 31.7433041,12.4624682 L19.4433301,19.7333153 C19.3050433,19.8165393 19.1594848,19.881587 19.0098257,19.9284431 L17.3888413,20.8877812 C16.7719129,21.2548469 16.0104559,21.2548469 15.3935276,20.8877812 L1.0265077,12.380522 C0.412110293,12.0142698 0.0340910684,11.3405947 0.0340910684,10.6119178 C0.0340910684,9.88324091 0.412110293,9.20956582 1.0265077,8.84331368 L15.4011433,0.332150271 C16.0177353,-0.0309967466 16.7760571,-0.0309967466 17.3926491,0.332150271 L31.7634769,8.84331368 C32.3778743,9.20956582 32.7558935,9.88324091 32.7558935,10.6119178 C32.7558935,10.6211125 32.7558333,10.6302985 32.7557132,10.6394752 Z"/>
          <path fill="#F7931E" fill-rule="nonzero" d="M15.9072791,21.3154495 C16.1952193,21.4866673 16.5499762,21.4866673 16.8379163,21.3154495 L29.7445639,13.6510277 L31.1088546,12.8237179 L16.8413128,4.32848804 C16.5546125,4.15717032 16.2007724,4.15717032 15.9140721,4.32848804 L1.63563686,12.7328728 L3.02440692,13.6510277 L15.9072791,21.3154495 Z"/>
        </g>
        <g transform="translate(47.467 27.35)">
          <path fill="#DA7D17" fill-rule="nonzero" d="M32.7557132,10.6394752 C32.7558333,10.6487068 32.7558935,10.6579476 32.7558935,10.6671973 C32.7558935,11.4079747 32.3698453,12.0924192 31.7433041,12.4624682 L19.4433301,19.7333153 C19.3050433,19.8165393 19.1594848,19.881587 19.0098257,19.9284431 L17.3888413,20.8877812 C16.7719129,21.2548469 16.0104559,21.2548469 15.3935276,20.8877812 L1.0265077,12.380522 C0.412110293,12.0142698 0.0340910684,11.3405947 0.0340910684,10.6119178 C0.0340910684,9.88324091 0.412110293,9.20956582 1.0265077,8.84331368 L15.4011433,0.332150271 C16.0177353,-0.0309967466 16.7760571,-0.0309967466 17.3926491,0.332150271 L31.7634769,8.84331368 C32.3778743,9.20956582 32.7558935,9.88324091 32.7558935,10.6119178 C32.7558935,10.6211125 32.7558333,10.6302985 32.7557132,10.6394752 Z"/>
          <path fill="#F7931E" fill-rule="nonzero" d="M15.9072791,21.3154495 C16.1952193,21.4866673 16.5499762,21.4866673 16.8379163,21.3154495 L29.7445639,13.6510277 L31.1088546,12.8237179 L16.8413128,4.32848804 C16.5546125,4.15717032 16.2007724,4.15717032 15.9140721,4.32848804 L1.63563686,12.7328728 L3.02440692,13.6510277 L15.9072791,21.3154495 Z"/>
        </g>
        <g transform="translate(70.824 40.715)">
          <path fill="#DA7D17" fill-rule="nonzero" d="M32.7557132,10.6394752 C32.7558333,10.6487068 32.7558935,10.6579476 32.7558935,10.6671973 C32.7558935,11.4079747 32.3698453,12.0924192 31.7433041,12.4624682 L19.4433301,19.7333153 C19.3050433,19.8165393 19.1594848,19.881587 19.0098257,19.9284431 L17.3888413,20.8877812 C16.7719129,21.2548469 16.0104559,21.2548469 15.3935276,20.8877812 L1.0265077,12.380522 C0.412110293,12.0142698 0.0340910684,11.3405947 0.0340910684,10.6119178 C0.0340910684,9.88324091 0.412110293,9.20956582 1.0265077,8.84331368 L15.4011433,0.332150271 C16.0177353,-0.0309967466 16.7760571,-0.0309967466 17.3926491,0.332150271 L31.7634769,8.84331368 C32.3778743,9.20956582 32.7558935,9.88324091 32.7558935,10.6119178 C32.7558935,10.6211125 32.7558333,10.6302985 32.7557132,10.6394752 Z"/>
          <path fill="#F7931E" fill-rule="nonzero" d="M15.9072791,21.3154495 C16.1952193,21.4866673 16.5499762,21.4866673 16.8379163,21.3154495 L29.7445639,13.6510277 L31.1088546,12.8237179 L16.8413128,4.32848804 C16.5546125,4.15717032 16.2007724,4.15717032 15.9140721,4.32848804 L1.63563686,12.7328728 L3.02440692,13.6510277 L15.9072791,21.3154495 Z"/>
        </g>
        <g transform="translate(23.485 40.965)">
          <path fill="#DA7D17" fill-rule="nonzero" d="M32.7557132,10.6394752 C32.7558333,10.6487068 32.7558935,10.6579476 32.7558935,10.6671973 C32.7558935,11.4079747 32.3698453,12.0924192 31.7433041,12.4624682 L19.4433301,19.7333153 C19.3050433,19.8165393 19.1594848,19.881587 19.0098257,19.9284431 L17.3888413,20.8877812 C16.7719129,21.2548469 16.0104559,21.2548469 15.3935276,20.8877812 L1.0265077,12.380522 C0.412110293,12.0142698 0.0340910684,11.3405947 0.0340910684,10.6119178 C0.0340910684,9.88324091 0.412110293,9.20956582 1.0265077,8.84331368 L15.4011433,0.332150271 C16.0177353,-0.0309967466 16.7760571,-0.0309967466 17.3926491,0.332150271 L31.7634769,8.84331368 C32.3778743,9.20956582 32.7558935,9.88324091 32.7558935,10.6119178 C32.7558935,10.6211125 32.7558333,10.6302985 32.7557132,10.6394752 Z"/>
          <path fill="#F7931E" fill-rule="nonzero" d="M15.9072791,21.3154495 C16.1952193,21.4866673 16.5499762,21.4866673 16.8379163,21.3154495 L29.7445639,13.6510277 L31.1088546,12.8237179 L16.8413128,4.32848804 C16.5546125,4.15717032 16.2007724,4.15717032 15.9140721,4.32848804 L1.63563686,12.7328728 L3.02440692,13.6510277 L15.9072791,21.3154495 Z"/>
        </g>
        <g transform="translate(46.967 54.455)">
          <path fill="#DA7D17" fill-rule="nonzero" d="M32.7557132,10.6394752 C32.7558333,10.6487068 32.7558935,10.6579476 32.7558935,10.6671973 C32.7558935,11.4079747 32.3698453,12.0924192 31.7433041,12.4624682 L19.4433301,19.7333153 C19.3050433,19.8165393 19.1594848,19.881587 19.0098257,19.9284431 L17.3888413,20.8877812 C16.7719129,21.2548469 16.0104559,21.2548469 15.3935276,20.8877812 L1.0265077,12.380522 C0.412110293,12.0142698 0.0340910684,11.3405947 0.0340910684,10.6119178 C0.0340910684,9.88324091 0.412110293,9.20956582 1.0265077,8.84331368 L15.4011433,0.332150271 C16.0177353,-0.0309967466 16.7760571,-0.0309967466 17.3926491,0.332150271 L31.7634769,8.84331368 C32.3778743,9.20956582 32.7558935,9.88324091 32.7558935,10.6119178 C32.7558935,10.6211125 32.7558333,10.6302985 32.7557132,10.6394752 Z"/>
          <path fill="#F7931E" fill-rule="nonzero" d="M15.9072791,21.3154495 C16.1952193,21.4866673 16.5499762,21.4866673 16.8379163,21.3154495 L29.7445639,13.6510277 L31.1088546,12.8237179 L16.8413128,4.32848804 C16.5546125,4.15717032 16.2007724,4.15717032 15.9140721,4.32848804 L1.63563686,12.7328728 L3.02440692,13.6510277 L15.9072791,21.3154495 Z"/>
        </g>
        <g transform="translate(94.306 27.225)">
          <path fill="#DA7D17" fill-rule="nonzero" d="M32.7557132,10.6394752 C32.7558333,10.6487068 32.7558935,10.6579476 32.7558935,10.6671973 C32.7558935,11.4079747 32.3698453,12.0924192 31.7433041,12.4624682 L19.4433301,19.7333153 C19.3050433,19.8165393 19.1594848,19.881587 19.0098257,19.9284431 L17.3888413,20.8877812 C16.7719129,21.2548469 16.0104559,21.2548469 15.3935276,20.8877812 L1.0265077,12.380522 C0.412110293,12.0142698 0.0340910684,11.3405947 0.0340910684,10.6119178 C0.0340910684,9.88324091 0.412110293,9.20956582 1.0265077,8.84331368 L15.4011433,0.332150271 C16.0177353,-0.0309967466 16.7760571,-0.0309967466 17.3926491,0.332150271 L31.7634769,8.84331368 C32.3778743,9.20956582 32.7558935,9.88324091 32.7558935,10.6119178 C32.7558935,10.6211125 32.7558333,10.6302985 32.7557132,10.6394752 Z"/>
          <path fill="#F7931E" fill-rule="nonzero" d="M15.9072791,21.3154495 C16.1952193,21.4866673 16.5499762,21.4866673 16.8379163,21.3154495 L29.7445639,13.6510277 L31.1088546,12.8237179 L16.8413128,4.32848804 C16.5546125,4.15717032 16.2007724,4.15717032 15.9140721,4.32848804 L1.63563686,12.7328728 L3.02440692,13.6510277 L15.9072791,21.3154495 Z"/>
        </g>
        <g transform="translate(24.11 13.736)">
          <path fill="#DA7D17" fill-rule="nonzero" d="M32.7557132,10.6394752 C32.7558333,10.6487068 32.7558935,10.6579476 32.7558935,10.6671973 C32.7558935,11.4079747 32.3698453,12.0924192 31.7433041,12.4624682 L19.4433301,19.7333153 C19.3050433,19.8165393 19.1594848,19.881587 19.0098257,19.9284431 L17.3888413,20.8877812 C16.7719129,21.2548469 16.0104559,21.2548469 15.3935276,20.8877812 L1.0265077,12.380522 C0.412110293,12.0142698 0.0340910684,11.3405947 0.0340910684,10.6119178 C0.0340910684,9.88324091 0.412110293,9.20956582 1.0265077,8.84331368 L15.4011433,0.332150271 C16.0177353,-0.0309967466 16.7760571,-0.0309967466 17.3926491,0.332150271 L31.7634769,8.84331368 C32.3778743,9.20956582 32.7558935,9.88324091 32.7558935,10.6119178 C32.7558935,10.6211125 32.7558333,10.6302985 32.7557132,10.6394752 Z"/>
          <path fill="#F7931E" fill-rule="nonzero" d="M15.9072791,21.3154495 C16.1952193,21.4866673 16.5499762,21.4866673 16.8379163,21.3154495 L29.7445639,13.6510277 L31.1088546,12.8237179 L16.8413128,4.32848804 C16.5546125,4.15717032 16.2007724,4.15717032 15.9140721,4.32848804 L1.63563686,12.7328728 L3.02440692,13.6510277 L15.9072791,21.3154495 Z"/>
        </g>
        <g transform="translate(.378 27.725)">
          <path fill="#DA7D17" fill-rule="nonzero" d="M32.7557132,10.6394752 C32.7558333,10.6487068 32.7558935,10.6579476 32.7558935,10.6671973 C32.7558935,11.4079747 32.3698453,12.0924192 31.7433041,12.4624682 L19.4433301,19.7333153 C19.3050433,19.8165393 19.1594848,19.881587 19.0098257,19.9284431 L17.3888413,20.8877812 C16.7719129,21.2548469 16.0104559,21.2548469 15.3935276,20.8877812 L1.0265077,12.380522 C0.412110293,12.0142698 0.0340910684,11.3405947 0.0340910684,10.6119178 C0.0340910684,9.88324091 0.412110293,9.20956582 1.0265077,8.84331368 L15.4011433,0.332150271 C16.0177353,-0.0309967466 16.7760571,-0.0309967466 17.3926491,0.332150271 L31.7634769,8.84331368 C32.3778743,9.20956582 32.7558935,9.88324091 32.7558935,10.6119178 C32.7558935,10.6211125 32.7558333,10.6302985 32.7557132,10.6394752 Z"/>
          <path fill="#F7931E" fill-rule="nonzero" d="M15.9072791,21.3154495 C16.1952193,21.4866673 16.5499762,21.4866673 16.8379163,21.3154495 L29.7445639,13.6510277 L31.1088546,12.8237179 L16.8413128,4.32848804 C16.5546125,4.15717032 16.2007724,4.15717032 15.9140721,4.32848804 L1.63563686,12.7328728 L3.02440692,13.6510277 L15.9072791,21.3154495 Z"/>
        </g>
      </g>
    </g>
    <path fill="#FFF" d="M23.1240192,66.3603516 L34.1174534,59.9100773 C35.3006572,59.2158458 36.5521487,58.6451924 37.8521604,58.2071308 L40.0285603,57.4737549 C42.6513215,56.5899698 45.5291492,56.8945093 47.9088416,58.3076677 L51.7231403,60.5727539 L57.8834771,58.8600207 C63.204499,57.3806388 68.7173155,60.4949033 70.1966974,65.8159251 C70.3410244,66.3350388 70.4431605,66.8649679 70.5021081,67.4005372 L70.6870075,69.0804443 L69.652187,69.7083795 L69.652187,69.7083795 C75.9766106,72.0797352 80.791944,77.3236717 82.6167427,83.8268841 L82.998531,85.1875 L76.5165974,89.7353516 L66.4008747,96.2850432 L23.1240192,66.3603516 Z"/>
  </g>
</svg>
